<?xml version="1.0" encoding="UTF-8"?>
<svg xmlns="http://www.w3.org/2000/svg" xmlns:xlink="http://www.w3.org/1999/xlink" viewBox="0 0 280 280">
  <defs>
    <style>
      .cls-1 {
        fill: url(#linear-gradient-13);
        mix-blend-mode: multiply;
      }

      .cls-1, .cls-2, .cls-3 {
        opacity: .59;
      }

      .cls-1, .cls-4, .cls-5, .cls-6, .cls-3, .cls-7, .cls-8 {
        fill-rule: evenodd;
      }

      .cls-9 {
        fill: url(#linear-gradient-2);
      }

      .cls-2 {
        fill: url(#Degradado_sin_nombre_8);
        mix-blend-mode: darken;
      }

      .cls-4 {
        fill: url(#linear-gradient-11);
        opacity: .9;
      }

      .cls-10 {
        fill: url(#linear-gradient-6);
      }

      .cls-11 {
        isolation: isolate;
      }

      .cls-5 {
        fill: url(#linear-gradient);
      }

      .cls-12 {
        fill: url(#linear-gradient-5);
      }

      .cls-13 {
        fill: url(#linear-gradient-9);
      }

      .cls-13, .cls-14, .cls-15 {
        mix-blend-mode: soft-light;
      }

      .cls-6 {
        fill: none;
      }

      .cls-3 {
        fill: url(#Degradado_sin_nombre_8-2);
        mix-blend-mode: color-burn;
      }

      .cls-14 {
        fill: url(#linear-gradient-7);
      }

      .cls-16 {
        fill: url(#linear-gradient-3);
      }

      .cls-17 {
        fill: url(#linear-gradient-4);
      }

      .cls-7 {
        fill: url(#linear-gradient-12);
      }

      .cls-7, .cls-8 {
        opacity: .79;
      }

      .cls-18 {
        fill: url(#linear-gradient-8);
      }

      .cls-15 {
        fill: url(#Degradado_sin_nombre_5);
      }

      .cls-8 {
        fill: url(#linear-gradient-10);
      }
    </style>
    <linearGradient id="linear-gradient" x1="51.18" y1="232.24" x2="244.48" y2="-40.97" gradientUnits="userSpaceOnUse">
      <stop offset="0" stop-color="#02005c"/>
      <stop offset=".12" stop-color="#020a6b"/>
      <stop offset=".35" stop-color="#032694"/>
      <stop offset=".67" stop-color="#0552d6"/>
      <stop offset=".81" stop-color="#0669f7"/>
    </linearGradient>
    <linearGradient id="linear-gradient-2" x1="229.75" y1="171.3" x2="98.94" y2="172.14" gradientUnits="userSpaceOnUse">
      <stop offset=".04" stop-color="#00105e"/>
      <stop offset=".13" stop-color="#133790"/>
      <stop offset=".22" stop-color="#255dbf"/>
      <stop offset=".31" stop-color="#3279e2"/>
      <stop offset=".38" stop-color="#3a89f7"/>
      <stop offset=".42" stop-color="#3d90ff"/>
      <stop offset=".85" stop-color="#6fd1ff"/>
    </linearGradient>
    <linearGradient id="linear-gradient-3" x1="191.5" y1="56.48" x2="172.01" y2="67.37" gradientUnits="userSpaceOnUse">
      <stop offset=".11" stop-color="#000f38"/>
      <stop offset=".3" stop-color="#0b2150" stop-opacity=".66"/>
      <stop offset=".62" stop-color="#1b3a72" stop-opacity=".18"/>
      <stop offset=".8" stop-color="#22447f" stop-opacity="0"/>
    </linearGradient>
    <linearGradient id="linear-gradient-4" x1="227.38" y1="158.1" x2="153.1" y2="179.89" gradientUnits="userSpaceOnUse">
      <stop offset=".06" stop-color="#000f38"/>
      <stop offset=".12" stop-color="#0d2354" stop-opacity=".61"/>
      <stop offset=".2" stop-color="#18356b" stop-opacity=".27"/>
      <stop offset=".27" stop-color="#1f407a" stop-opacity=".07"/>
      <stop offset=".35" stop-color="#22447f" stop-opacity="0"/>
    </linearGradient>
    <linearGradient id="linear-gradient-5" x1="196.6" y1="21.05" x2="155.8" y2="119.13" gradientUnits="userSpaceOnUse">
      <stop offset="0" stop-color="#02005c"/>
      <stop offset=".12" stop-color="#020463"/>
      <stop offset=".31" stop-color="#021277"/>
      <stop offset=".53" stop-color="#032998"/>
      <stop offset=".77" stop-color="#0448c6"/>
      <stop offset="1" stop-color="#0669f7"/>
    </linearGradient>
    <linearGradient id="linear-gradient-6" x1="242.21" y1="148.39" x2="187.97" y2="24.8" gradientUnits="userSpaceOnUse">
      <stop offset="0" stop-color="#00105e"/>
      <stop offset=".09" stop-color="#133790"/>
      <stop offset=".19" stop-color="#255dbf"/>
      <stop offset=".28" stop-color="#3279e2"/>
      <stop offset=".35" stop-color="#3a89f7"/>
      <stop offset=".4" stop-color="#3d90ff"/>
      <stop offset=".85" stop-color="#6fd1ff"/>
    </linearGradient>
    <linearGradient id="linear-gradient-7" x1="221.47" y1="44.06" x2="101.82" y2="139.01" gradientUnits="userSpaceOnUse">
      <stop offset=".07" stop-color="#7fe7ff"/>
      <stop offset=".1" stop-color="#7fe7ff" stop-opacity=".79"/>
      <stop offset=".13" stop-color="#7fe7ff" stop-opacity=".61"/>
      <stop offset=".16" stop-color="#7fe7ff" stop-opacity=".44"/>
      <stop offset=".19" stop-color="#7fe7ff" stop-opacity=".31"/>
      <stop offset=".23" stop-color="#7fe7ff" stop-opacity=".19"/>
      <stop offset=".27" stop-color="#7fe7ff" stop-opacity=".11"/>
      <stop offset=".31" stop-color="#7fe7ff" stop-opacity=".05"/>
      <stop offset=".36" stop-color="#7fe7ff" stop-opacity=".01"/>
      <stop offset=".43" stop-color="#7fe7ff" stop-opacity="0"/>
    </linearGradient>
    <linearGradient id="Degradado_sin_nombre_5" data-name="Degradado sin nombre 5" x1="154.39" y1="147.04" x2="205.6" y2="261.81" gradientUnits="userSpaceOnUse">
      <stop offset=".13" stop-color="#7fe7ff"/>
      <stop offset=".16" stop-color="#7fe7ff" stop-opacity=".98"/>
      <stop offset=".2" stop-color="#7fe7ff" stop-opacity=".92"/>
      <stop offset=".24" stop-color="#7fe7ff" stop-opacity=".82"/>
      <stop offset=".28" stop-color="#7fe7ff" stop-opacity=".69"/>
      <stop offset=".33" stop-color="#7fe7ff" stop-opacity=".51"/>
      <stop offset=".37" stop-color="#7fe7ff" stop-opacity=".3"/>
      <stop offset=".42" stop-color="#7fe7ff" stop-opacity=".05"/>
      <stop offset=".43" stop-color="#7fe7ff" stop-opacity="0"/>
    </linearGradient>
    <linearGradient id="linear-gradient-8" x1="308.62" y1="259.62" x2="101.34" y2="68.37" xlink:href="#linear-gradient-2"/>
    <linearGradient id="linear-gradient-9" x1="227.68" y1="288.95" x2="112.62" y2="380.25" gradientTransform="translate(49.03 -129.42) rotate(2.58) scale(.98 1)" xlink:href="#linear-gradient-7"/>
    <linearGradient id="Degradado_sin_nombre_8" data-name="Degradado sin nombre 8" x1="244.85" y1="211" x2="277.69" y2="253.91" gradientUnits="userSpaceOnUse">
      <stop offset=".06" stop-color="#000f38"/>
      <stop offset=".63" stop-color="#22447f" stop-opacity="0"/>
    </linearGradient>
    <linearGradient id="linear-gradient-10" x1="-29.01" y1="181.85" x2="163.74" y2="122.76" gradientUnits="userSpaceOnUse">
      <stop offset=".34" stop-color="#60aeff"/>
      <stop offset=".43" stop-color="#75b9ff"/>
      <stop offset=".59" stop-color="#97caff"/>
      <stop offset=".74" stop-color="#b0d6ff"/>
      <stop offset=".88" stop-color="#bedeff"/>
      <stop offset="1" stop-color="#c4e1ff"/>
    </linearGradient>
    <linearGradient id="linear-gradient-11" x1="237.72" y1="319.85" x2="66.31" y2="162.72" xlink:href="#linear-gradient-5"/>
    <linearGradient id="linear-gradient-12" x1="110.57" y1="31.46" x2="-35.97" y2="176.2" xlink:href="#linear-gradient-2"/>
    <linearGradient id="Degradado_sin_nombre_8-2" data-name="Degradado sin nombre 8" x1="156.23" y1="227.25" x2="154.91" y2="210.04" xlink:href="#Degradado_sin_nombre_8"/>
    <linearGradient id="linear-gradient-13" x1="149.98" y1="29.67" x2="64.16" y2="94.04" gradientUnits="userSpaceOnUse">
      <stop offset=".06" stop-color="#000f38"/>
      <stop offset=".11" stop-color="#03143e" stop-opacity=".9"/>
      <stop offset=".36" stop-color="#142e62" stop-opacity=".41"/>
      <stop offset=".58" stop-color="#1e3e77" stop-opacity=".11"/>
      <stop offset=".74" stop-color="#22447f" stop-opacity="0"/>
    </linearGradient>
  </defs>
  <g class="cls-11">
    <g id="Capa_1" data-name="Capa 1">
      <g>
        <path class="cls-6" d="m42.59,120.22l-1.05,1.59"/>
        <path class="cls-5" d="m158.77,202.93c-22.38,13.87-51.3,15.89-76.31,2.79-37.65-19.72-52.18-66.22-32.46-103.87,17.6-33.59,56.51-48.75,91.43-37.62l18.16-33.88c-53.8-20.86-115.84,1.55-143.24,53.87-29.46,56.23-7.75,125.7,48.48,155.16,52.03,27.25,115.37,10.71,147.89-36.45h-53.95Z"/>
        <g>
          <path class="cls-9" d="m259.15,182.08l-1.44-9.68c-.48-3.22-1.51-6.35-3.19-9.14-2.75-4.58-6.02-6.62-11.3-6.65h-.01l-110.94-.3h-.01c-1.07,0-2.09.43-2.85,1.19-.76.76-1.17,1.79-1.16,2.87v.43c-.11,6.89,2.48,13.39,7.3,18.32,4.84,4.94,11.32,7.66,18.23,7.66h101.41c1.71,0,3.29-1.09,3.84-2.85.19-.59.2-1.22.11-1.83Z"/>
          <path class="cls-16" d="m180.93,29.82c-.22-.72-.22-1.48-.06-2.2l-22.65,43.08c-2.71,5.15-3.2,11.03-1.39,16.56,1.79,5.49,5.62,9.91,10.79,12.48l2.24,1.26c.65.37,1.38.55,2.12.55.42,0,.84-.06,1.25-.19,1.13-.34,2.06-1.13,2.6-2.18l16.34-32.17-11.23-37.2Z"/>
          <path class="cls-17" d="m226.39,167.47l-2.92-10.92-91.18-.25h-.01c-1.07,0-2.09.43-2.85,1.19-.76.76-1.17,1.79-1.16,2.87v.43c-.11,6.89,2.48,13.39,7.3,18.32,4.84,4.94,11.32,7.66,18.23,7.66h77.68s-5.1-19.29-5.1-19.29Z"/>
          <path class="cls-12" d="m208.99,27.62h-28.12l-22.65,43.08c-2.71,5.15-3.2,11.03-1.39,16.56,1.79,5.49,5.62,9.91,10.79,12.48l2.24,1.26c.65.37,1.38.55,2.12.55,1.06,0,2.12-.39,2.98-1.19.41-.38.71-.86.97-1.36l33.51-66c.52-1.03.61-2.22.25-3.31l-.69-2.08Z"/>
          <path class="cls-10" d="m247.03,135.77l-33.71-105.78c-.42-1.25-1.99-2.37-3.3-2.37h-29.24c.01.37.06.74.16,1.1l22.66,83.47c5.24,17.48,20.99,29.24,39.22,29.29.96,0,1.93-.27,2.7-.85,1.55-1.17,2.11-3.14,1.51-4.87Z"/>
          <path class="cls-14" d="m209.77,27.59l-28.4.05c5.4,24.66,26.41,48.11,49.44,57.26l-17.19-54.45c-.51-1.7-2.07-2.86-3.84-2.86h-.02Z"/>
          <path class="cls-15" d="m132.29,156.3c-1.07,0-2.09.43-2.85,1.19-.76.76-1.17,1.79-1.16,2.87v.43c-.11,6.89,2.48,13.39,7.3,18.32,1.98,2.01,4.23,3.65,6.66,4.89,18.8-9.7,44.68-23.23,51.24-27.53l-61.19-.17Z"/>
          <path class="cls-18" d="m275.76,226.43l-21.73-67.27c-.51-1.7-2.07-2.86-3.84-2.86h-.02l-28.42.05,2.9,10.92h0l24.18,87.17c.47,1.76,2.06,2.98,3.88,2.98,7.69,0,14.73-3.54,19.32-9.71,4.59-6.17,5.95-13.93,3.74-21.29Z"/>
          <path class="cls-13" d="m221.75,156.36c7.35,28.38,23.97,35.93,46.06,46.09l-8.35-25.88c-.32-1.31-3.92-13.04-5.69-18.05-.5-1.41-1.73-2.05-2.7-2.11-.5-.03-1.03-.1-1.58-.1,0,0-27.74.05-27.74.05Z"/>
          <path class="cls-2" d="m267.82,202.44c-7.09,10.56-20.46,28.83-21.04,44.08l2.05,7.75c.47,1.76,2.06,2.98,3.88,2.98,7.69,0,14.73-3.54,19.32-9.71,4.59-6.17,5.95-13.93,3.74-21.29l-7.95-23.81Z"/>
        </g>
        <path class="cls-8" d="m97.61,220.99c11.6-44.41-35.86-53.32-60.72-82.03-21.29-24.59-16.47-53.23-7.89-73.96-4.76,5.86-9.01,12.28-12.65,19.22-29.46,56.23-7.75,125.7,48.48,155.16,5.72,3,11.59,5.44,17.53,7.4,9.07-5.83,13.39-18.71,15.24-25.78Z"/>
        <path class="cls-4" d="m207.63,209.75c-22.51,10.27-54.22,16.89-82.81,8.45-43.84-12.94-65.36,1.74-75.92,11.07,4.96,3.74,10.27,7.14,15.94,10.11,49.43,25.89,109.07,12.24,142.79-29.63Z"/>
        <path class="cls-7" d="m158.75,31.93l.85-1.59c-53.81-20.9-115.84,1.49-143.26,53.83C4.49,106.79.93,131.55,4.56,154.98c64.92-10.23,50.69-69.6,78.47-101.88,18.69-21.72,53.52-22.98,75.73-21.17Z"/>
        <path class="cls-3" d="m158.77,202.93c-9.81,6.08-20.88,9.89-32.33,11.14l-2.25.2c-8.48.76-17.02,0-25.23-2.25l-2.29-.63c.3.65.7,1.27,1.17,1.86,7.89.44,16.83,1.95,26.97,4.94,28.6,8.44,60.3,1.82,82.81-8.45-.85,1.05-1.72,2.09-2.6,3.1.02,0,.03-.02.05-.03,2.7-3.13,5.26-6.43,7.65-9.89h-53.95Z"/>
        <path class="cls-1" d="m158.74,31.94c-17.81-1.39-43.34-.59-62.12,10.06-4.47,2.53-8.47,5.81-12.19,9.56-.48.51-.95,1.01-1.41,1.54-6.24,7.25-10.36,15.87-13.73,24.99,19.83-16.29,47.02-21.86,72.14-13.86l17.31-32.3Z"/>
      </g>
    </g>
  </g>
</svg>