<?xml version="1.0" encoding="UTF-8"?>
<svg version="1.1" xmlns="http://www.w3.org/2000/svg" width="1810" height="450">
<path d="M0 0 C0.33 84.48 0.66 168.96 1 256 C9.58 247.42 18.16 238.84 27 230 C29.64 227.69 32.28 225.38 35 223 C37.37980004 220.68594029 39.73269492 218.36258338 42.0625 216 C42.69808838 215.360625 43.33367676 214.72125 43.98852539 214.0625 C45.9948365 212.04411603 47.99784001 210.02250124 50 208 C64.7907634 193.0589676 64.7907634 193.0589676 70.83984375 187.9375 C76.6430981 182.7324111 82.01848348 177.03928909 87.5 171.5 C90.04906624 168.92406781 92.60161354 166.35165686 95.15625 163.78125 C96.00817932 162.91687317 96.00817932 162.91687317 96.87731934 162.03503418 C99.73894015 159.15635638 102.63351372 156.47482106 105.77978516 153.90966797 C108.79308055 151.3351524 111.12876896 148.59832538 113.45833015 145.39336205 C120.62647798 135.58864654 128.93756176 125.23092486 141.36047363 122.61364746 C155.0165536 120.56957443 169.02019478 121.49199269 182.75079346 122.21472168 C188.42763467 122.48437754 194.10761704 122.60019576 199.7890625 122.73046875 C210.86746221 123.0064443 221.93215426 123.44793179 233 124 C232.05849099 125.10741746 231.11567875 126.21372701 230.17233276 127.31958008 C229.64744703 127.93577713 229.1225613 128.55197418 228.58176994 129.18684387 C226.30714619 131.7942066 223.89001355 134.23981188 221.4453125 136.6875 C220.9400705 137.19369873 220.43482849 137.69989746 219.91427612 138.22143555 C218.85504767 139.28133819 217.79458079 140.34000457 216.73291016 141.39746094 C215.13198611 142.99303722 213.53646316 144.5938734 211.94140625 146.1953125 C203.42959599 154.7120921 203.42959599 154.7120921 199.1171875 158.375 C192.71287072 163.84973807 186.92062877 170.01454683 181 176 C167.27348843 189.87680185 167.27348843 189.87680185 161.1328125 195.08984375 C155.68527636 199.96868107 150.63990499 205.30154442 145.5 210.5 C132.33466737 223.81530387 132.33466737 223.81530387 126.15039062 229.07226562 C120.69878257 233.959402 115.64595685 239.29542362 110.5 244.5 C96.51365035 258.64567341 96.51365035 258.64567341 90.56835938 263.65649414 C88.24509146 265.64667834 86.12870391 267.8047741 84 270 C85.4841373 273.48654476 87.46214052 275.64191072 90.1875 278.25 C93.724765 281.64478322 96.95660536 285.2066524 100.16381836 288.90771484 C103.09128859 292.2434973 106.1393744 295.4622748 109.1875 298.6875 C110.51080806 300.0933817 111.83371972 301.49963661 113.15625 302.90625 C113.8059375 303.5971875 114.455625 304.288125 115.125 305 C119.2948479 309.44783776 123.41983409 313.93716997 127.54833984 318.42333984 C130.029464 321.1181094 132.51495791 323.80884393 135 326.5 C137.97795955 329.72527752 140.95536883 332.95105166 143.9296875 336.1796875 C149.28712377 341.99300002 154.66346796 347.78778103 160.0625 353.5625 C165.12770844 358.98016654 170.15258708 364.4316541 175.15625 369.90625 C178.41364794 373.45977503 181.70707554 376.97942534 185 380.5 C190.13247534 385.98806767 195.22974271 391.50595224 200.30078125 397.05078125 C206.92050076 404.28361516 213.575855 411.48315057 220.27124023 418.64599609 C222.61865011 421.15753589 224.96302261 423.67190049 227.30712891 426.18652344 C228.42245975 427.38131396 229.53928682 428.57470978 230.65771484 429.76660156 C232.192717 431.40300264 233.72195003 433.04460916 235.25 434.6875 C236.12140625 435.61949219 236.9928125 436.55148437 237.890625 437.51171875 C239.72497776 439.67557561 240.8087303 441.46905439 242 444 C227.90932492 444.18712171 213.81884326 444.32753875 199.72717953 444.41449738 C193.18364792 444.45623526 186.64095138 444.5128413 180.09790039 444.60351562 C173.78251004 444.69048656 167.46792246 444.73828466 161.15197945 444.75901794 C158.7433464 444.77379153 156.33475694 444.80264193 153.92646599 444.84584045 C150.55019348 444.9039894 147.17723039 444.91190998 143.80053711 444.90820312 C142.80647354 444.93696533 141.81240997 444.96572754 140.78822327 444.99536133 C136.77443558 444.94773236 134.08644906 444.88431926 130.90359688 442.29362488 C129.12472292 440.27100268 127.56771005 438.18811497 126 436 C124.82559112 434.69681467 123.63490794 433.40793684 122.421875 432.140625 C121.82431396 431.50632568 121.22675293 430.87202637 120.61108398 430.21850586 C119.99692627 429.56889893 119.38276855 428.91929199 118.75 428.25 C113.39125616 422.55893096 108.07970121 416.83096552 102.80859375 411.05859375 C99.56443661 407.51537135 96.28175903 404.00836194 93 400.5 C87.87001271 395.01464084 82.77489922 389.49977997 77.70703125 383.95703125 C73.32512121 379.165567 68.91380545 374.40117589 64.50732422 369.63232422 C63.02589866 368.02804639 61.54591008 366.42245634 60.06640625 364.81640625 C54.71047999 359.00420142 49.33522536 353.21092348 43.9375 347.4375 C38.82889126 341.97254144 33.75499275 336.47800817 28.70703125 330.95703125 C24.34400869 326.1862198 19.95189253 321.44218933 15.56445312 316.69384766 C13.91197507 314.90469461 12.26055507 313.11456971 10.609375 311.32421875 C10.05757568 310.72601318 9.50577637 310.12780762 8.93725586 309.51147461 C7.87282264 308.35747225 6.80852713 307.20334284 5.74438477 306.04907227 C3.40583628 303.49248003 3.40583628 303.49248003 1 301 C0.67 348.19 0.34 395.38 0 444 C-28.05 444 -56.1 444 -85 444 C-85 302.1 -85 160.2 -85 14 C-37.96052632 5.76809211 -37.96052632 5.76809211 -24.20288086 3.48120117 C-21.54815418 3.039305 -18.89420737 2.59288287 -16.24023438 2.14648438 C-14.51827264 1.85911441 -12.7962694 1.57199296 -11.07421875 1.28515625 C-9.90761971 1.08842064 -9.90761971 1.08842064 -8.717453 0.88771057 C-5.77275534 0.40122394 -2.99055763 0 0 0 Z " fill="#0048FB" transform="translate(85,0)"/>
<path d="M0 0 C1.12986076 -0.01058945 1.12986076 -0.01058945 2.282547 -0.02139282 C53.30427438 -0.39069957 98.22185892 13.77224692 135.48779297 49.77246094 C166.40436117 80.46632915 181.84397266 123.02880857 182.11328125 166.140625 C181.86292367 206.27433668 169.15020477 243.62445886 142.86328125 274.203125 C142.05503906 275.14542969 141.24679687 276.08773438 140.4140625 277.05859375 C114.0606527 307.10471327 77.13507856 325.26143932 37.86328125 331.203125 C36.88609131 331.35563721 36.88609131 331.35563721 35.88916016 331.51123047 C28.0158014 332.56564782 20.04272417 332.4469517 12.11328125 332.453125 C11.33460693 332.45379974 10.55593262 332.45447449 9.75366211 332.45516968 C-2.75509994 332.43798378 -14.86853341 331.83887808 -27.13671875 329.203125 C-27.92320801 329.03683594 -28.70969727 328.87054688 -29.52001953 328.69921875 C-60.22814545 321.95704026 -87.48598298 306.89937271 -110.13671875 285.203125 C-111.06613281 284.34847656 -111.99554687 283.49382812 -112.953125 282.61328125 C-125.48681548 270.84233181 -135.2409048 256.4182886 -143.13671875 241.203125 C-144.04164062 239.47255859 -144.04164062 239.47255859 -144.96484375 237.70703125 C-164.39768693 199.13990879 -164.72268607 151.65394864 -151.86328125 111.0546875 C-144.00062424 87.88543784 -130.33609001 68.22838365 -114.13671875 50.203125 C-113.53472656 49.52765625 -112.93273438 48.8521875 -112.3125 48.15625 C-106.60165492 42.11454992 -99.7887314 37.15350037 -93.13671875 32.203125 C-92.56453613 31.77596191 -91.99235352 31.34879883 -91.40283203 30.90869141 C-65.66302721 12.00128522 -32.06245782 0.20117729 0 0 Z M-53.69140625 102.3515625 C-72.02292124 123.7285688 -78.81729981 149.90357586 -76.8984375 177.6484375 C-74.38192022 199.55993143 -64.82035609 218.8779708 -49.13671875 234.203125 C-47.96882813 235.40195312 -47.96882813 235.40195312 -46.77734375 236.625 C-29.32999665 253.60396194 -6.96975766 258.78493495 16.6640625 258.47265625 C35.17914755 257.90014105 51.32232374 250.43804593 65.86328125 239.203125 C66.87390625 238.460625 67.88453125 237.718125 68.92578125 236.953125 C81.99429615 225.60994775 90.82862171 209.51122638 95.86328125 193.203125 C96.20359375 192.13191406 96.54390625 191.06070313 96.89453125 189.95703125 C103.48978993 165.01107597 98.13400278 138.47898836 85.80859375 116.3359375 C73.50703307 96.52499037 53.41581462 80.79799233 30.56787109 75.2355957 C-1.36936657 68.85808318 -31.31311266 79.10979778 -53.69140625 102.3515625 Z " fill="#0048FB" transform="translate(1628.13671875,117.796875)"/>
<path d="M0 0 C0.8126532 0.00182281 1.6253064 0.00364563 2.46258545 0.00552368 C14.79989152 0.05205267 26.74097763 0.56380732 38.8125 3.3125 C39.58045898 3.47878906 40.34841797 3.64507812 41.13964844 3.81640625 C70.86946443 10.39326026 97.67530183 24.4307195 119.8125 45.3125 C121.03564431 46.34054153 122.26434283 47.3620327 123.5 48.375 C152.67277635 73.42847228 168.34454293 114.77943819 171.4375 152.1875 C173.26454397 182.38355398 169.09301155 211.92144493 155.8125 239.3125 C155.32910156 240.32062744 155.32910156 240.32062744 154.8359375 241.34912109 C148.59202461 254.18277336 140.63586084 265.63638425 130.8984375 276.07421875 C128.94805617 278.16704366 127.09618633 280.31548541 125.25 282.5 C121.72593002 286.51042353 117.96949609 289.96505802 113.8125 293.3125 C113.27512207 293.74578613 112.73774414 294.17907227 112.18408203 294.62548828 C87.2789791 314.50510926 58.37550751 326.91204058 26.8125 331.3125 C25.513125 331.49683594 24.21375 331.68117188 22.875 331.87109375 C15.61587936 332.64185728 8.29226479 332.55683592 1 332.5625 C0.21971436 332.56317474 -0.56057129 332.56384949 -1.36450195 332.56454468 C-13.53892887 332.54783872 -25.26835153 331.98693791 -37.1875 329.3125 C-37.95835937 329.14621094 -38.72921875 328.97992188 -39.5234375 328.80859375 C-73.12998022 321.3710802 -101.06453547 304.43546453 -125.1875 280.3125 C-125.79851563 279.74789063 -126.40953125 279.18328125 -127.0390625 278.6015625 C-142.65389088 263.94976318 -154.23693241 243.39429374 -161.1875 223.3125 C-161.52322021 222.36044678 -161.52322021 222.36044678 -161.86572266 221.38916016 C-165.4160234 211.21399317 -167.69912296 200.98091878 -169.1875 190.3125 C-169.28321289 189.65137207 -169.37892578 188.99024414 -169.47753906 188.30908203 C-175.03618806 145.26441835 -164.13065551 100.58744933 -137.77075195 66.04199219 C-113.42806 34.89874108 -81.22090916 14.459735 -43.0625 4.5625 C-42.29977783 4.36342041 -41.53705566 4.16434082 -40.7512207 3.95922852 C-27.24199542 0.6504699 -13.83107091 -0.06458487 0 0 Z M-64.58984375 103.3125 C-82.34933582 123.82271039 -88.65054735 149.63679438 -87.1875 176.3125 C-85.37449684 195.61469692 -77.69579147 213.49543511 -65.1875 228.3125 C-64.48367188 229.21548828 -64.48367188 229.21548828 -63.765625 230.13671875 C-51.26201191 245.76623511 -30.68677169 255.45457538 -11.1875 258.3125 C14.33825937 260.34719453 37.00567111 255.08111325 56.8125 238.3125 C74.83458709 222.56838573 86.03225502 201.1396872 88.8125 177.3125 C90.40219092 147.43060726 82.35978226 122.77248903 62.8828125 100.0625 C48.30759875 84.54896776 28.15519136 74.94089337 6.94140625 74 C-21.82845624 73.20995585 -44.42659514 82.42395468 -64.58984375 103.3125 Z " fill="#0048FB" transform="translate(666.1875,117.6875)"/>
<path d="M0 0 C0.69383789 0.32081543 1.38767578 0.64163086 2.10253906 0.97216797 C9.97729888 4.64469333 17.56037441 8.76155559 25 13.25 C25.7014917 13.66233887 26.4029834 14.07467773 27.12573242 14.49951172 C29.0625 15.703125 29.0625 15.703125 32 18 C32 22.25224627 31.7721694 22.80033994 29.359375 25.984375 C28.78952881 26.7462915 28.21968262 27.50820801 27.63256836 28.29321289 C27.0113208 29.10395264 26.39007324 29.91469238 25.75 30.75 C25.11392822 31.59618896 24.47785645 32.44237793 23.82250977 33.31420898 C21.88995539 35.88251956 19.94563819 38.44159412 18 41 C15.9750315 43.68440153 13.95610078 46.37330857 11.9375 49.0625 C11.46248047 49.69317383 10.98746094 50.32384766 10.49804688 50.97363281 C4.54592626 58.89514636 -1.22562922 66.94849177 -7 75 C-10.89695586 73.60658946 -14.34988634 71.7272136 -17.92358398 69.67480469 C-50.38622223 51.03670633 -91.37257521 37.21089397 -128.9375 46.6875 C-138.95028193 49.64992435 -147.04460874 54.21918164 -153 63 C-156.08099768 69.22402887 -156.11356978 76.70782281 -154.3828125 83.37890625 C-151.49798272 89.90168508 -146.40698503 94.52148179 -139.91650391 97.33813477 C-132.22022252 100.08618243 -124.82466766 102.04985695 -116.75 103.25 C-115.53908691 103.44271484 -114.32817383 103.63542969 -113.08056641 103.83398438 C-104.93502696 105.1268444 -96.77634527 106.33632119 -88.62158203 107.5692749 C-83.49792637 108.34576986 -78.3752603 109.1287067 -73.25256348 109.91149902 C-69.45702576 110.48755088 -65.65981553 111.05138246 -61.86230469 111.61425781 C-44.5141403 114.22382024 -26.92036069 116.95577878 -10.625 123.75 C-9.80467285 124.08652588 -8.9843457 124.42305176 -8.13916016 124.76977539 C11.9403887 133.30662482 30.54265222 148.89696592 39.37109375 169.14453125 C48.15022221 191.93900425 49.07151795 217.78997935 39.60375977 240.54077148 C26.19700036 270.58102898 -1.533058 290.279375 -31.47265625 301.75390625 C-52.27310869 309.31414603 -73.55036905 311.23541224 -95.5 311.25 C-96.86776077 311.25101212 -96.86776077 311.25101212 -98.26315308 311.25204468 C-147.83254155 311.19393412 -197.45499511 299.50428818 -238 270 C-238.99 269.34 -239.98 268.68 -241 268 C-240.38888772 264.81099253 -239.33982214 262.78328416 -237.40234375 260.19140625 C-236.5829834 259.08671997 -236.5829834 259.08671997 -235.74707031 257.9597168 C-235.14991211 257.16863525 -234.55275391 256.37755371 -233.9375 255.5625 C-233.31842773 254.73210205 -232.69935547 253.9017041 -232.06152344 253.04614258 C-226.6694408 245.8335927 -221.19357324 238.68429928 -215.71850586 231.53466797 C-210.3188393 224.46666589 -205.0962703 217.2891366 -200 210 C-195.60151552 211.53822236 -191.93100438 213.9001255 -188.0625 216.4375 C-153.64992915 238.37829238 -110.79727527 252.96901376 -69.76953125 243.9765625 C-57.53294204 240.80646167 -45.21316719 235.95846554 -38 225 C-34.13914516 217.60002822 -34.39456014 211.1518405 -36.85546875 203.30859375 C-39.83138842 197.3059708 -43.61262794 194.21636247 -49.5625 191.3125 C-50.67753906 190.75175781 -51.79257813 190.19101562 -52.94140625 189.61328125 C-62.43722474 185.53108425 -72.89562101 184.26324141 -83.05449677 182.82904625 C-85.36501695 182.50207572 -87.67407763 182.16609168 -89.98297119 181.82783508 C-96.54007166 180.86849175 -103.09899545 179.92214739 -109.65966797 178.98754883 C-191.2877686 167.33470705 -191.2877686 167.33470705 -216.3125 134.6875 C-231.17506843 112.90348599 -235.68159408 86.20973092 -230.8125 60.3125 C-225.48928396 36.28340331 -211.57061483 16.04558993 -190.94433594 2.61816406 C-135.55909264 -32.2213848 -57.4982649 -26.94659711 0 0 Z " fill="#0048FB" transform="translate(1094,139)"/>
<path d="M0 0 C0.78897675 0.00182281 1.57795349 0.00364563 2.39083862 0.00552368 C14.58029897 0.05283955 26.38548313 0.59820331 38.3125 3.3125 C39.08722656 3.48410645 39.86195313 3.65571289 40.66015625 3.83251953 C66.3350263 9.67198693 90.49457289 20.0559531 111.3125 36.3125 C112.27285156 37.05113281 113.23320313 37.78976563 114.22265625 38.55078125 C121.09840874 43.99529412 127.22649275 50.01460082 133.3125 56.3125 C131.6501499 60.43833277 128.69314808 63.3794785 125.6875 66.5625 C124.87889526 67.42911255 124.87889526 67.42911255 124.05395508 68.31323242 C120.48181648 72.12418882 116.82161068 75.83331311 113.09765625 79.49609375 C111.29331164 81.33202426 109.61218611 83.23305194 107.9375 85.1875 C104.41133284 89.29331108 100.58670578 93.05376258 96.73828125 96.85546875 C93.97772834 99.65158434 91.40550941 102.56714185 88.8515625 105.55078125 C86.77825944 107.92402916 84.57416261 110.11937262 82.3125 112.3125 C78.46560865 110.75247033 76.24805818 108.31954097 73.4375 105.3125 C55.92090158 87.26825728 32.00364617 75.46410237 6.70874023 75.01953125 C-17.65040519 74.87409266 -38.07862799 81.6542189 -56.25 98.4375 C-77.19557686 120.63880689 -82.682839 147.21832968 -81.86230469 176.99316406 C-80.65782763 199.86477023 -69.39853281 221.0584249 -52.86328125 236.5859375 C-39.27571262 248.67032608 -19.87310547 256.55201104 -1.6875 257.3125 C-0.87539062 257.35246094 -0.06328125 257.39242188 0.7734375 257.43359375 C27.41019958 258.09755996 51.65034237 247.81218152 71 229.8125 C71.886875 228.9875 72.77375 228.1625 73.6875 227.3125 C74.47898437 226.549375 75.27046875 225.78625 76.0859375 225 C78.3125 223.3125 78.3125 223.3125 82.3125 223.3125 C84.17006936 225.03760088 85.7474159 226.70255523 87.375 228.625 C88.34794445 229.73250762 89.32326848 230.83792865 90.30078125 231.94140625 C90.79787598 232.5048877 91.2949707 233.06836914 91.80712891 233.64892578 C94.13308331 236.21932042 96.59071011 238.6316225 99.0625 241.0625 C102.03511255 244.00166543 104.92314426 246.93559134 107.625 250.125 C110.98777775 254.08360973 114.67513663 257.67386255 118.375 261.3125 C123.17340899 266.04048286 127.51097668 270.72202453 131.3125 276.3125 C118.45392258 290.06300186 103.83785723 301.29357623 87.3125 310.3125 C86.68553223 310.65619629 86.05856445 310.99989258 85.41259766 311.35400391 C71.49369594 318.88031184 56.93909507 324.39857587 41.5625 328.125 C40.76046143 328.31989014 39.95842285 328.51478027 39.13208008 328.71557617 C26.22146221 331.66001199 13.3957363 332.69710662 0.1875 332.625 C-0.52950073 332.62284485 -1.24650146 332.6206897 -1.98522949 332.61846924 C-39.38794342 332.43905734 -76.47849322 321.29586338 -105.6875 297.3125 C-106.2438916 296.86148926 -106.8002832 296.41047852 -107.37353516 295.94580078 C-140.57223898 268.91636257 -162.12082735 230.05868008 -166.6875 187.3125 C-170.57153495 144.09132039 -161.97972608 99.71094626 -134.6875 65 C-133.36945347 63.42458343 -132.03604411 61.86189111 -130.6875 60.3125 C-129.99011719 59.50554687 -129.29273438 58.69859375 -128.57421875 57.8671875 C-126.3176363 55.3099946 -124.01586642 52.80446079 -121.6875 50.3125 C-120.87796875 49.43722656 -120.0684375 48.56195313 -119.234375 47.66015625 C-88.20681999 15.28559661 -44.2105442 -0.21291246 0 0 Z " fill="#0048FB" transform="translate(1326.6875,117.6875)"/>
<path d="M0 0 C0.66 0 1.32 0 2 0 C3.25033597 1.57716239 4.42442042 3.21501322 5.5625 4.875 C13.34807714 15.82258951 23.41619297 29.30575518 37 33 C44.7215707 34.29930276 50.57691287 32.28873837 57 28 C66.37455703 20.6621341 74.62719508 11.79624285 80.80859375 1.6171875 C81.20175781 1.08351562 81.59492188 0.54984375 82 0 C82.66 0 83.32 0 84 0 C84 68.31 84 136.62 84 207 C56.28 207 28.56 207 0 207 C0 138.69 0 70.38 0 0 Z " fill="#0048FB" transform="translate(375,237)"/>
<path d="M0 0 C16.01070669 12.19863366 25.58424889 28.434581 29.96484375 47.89453125 C31.85516181 63.82991245 30.81750895 79.80385565 26.35546875 95.1875 C25.96077393 96.55310059 25.96077393 96.55310059 25.55810547 97.94628906 C16.24028927 129.32207082 0.10241368 170.57394462 -29.5234375 188.3125 C-34.78947588 190.48486206 -41.07568673 190.16806039 -46.3359375 188.16015625 C-78.07294541 170.23048511 -93.78586673 123.48870254 -102.96484375 90.55859375 C-109.14325312 66.48988417 -106.94660359 42.56738201 -94.70019531 20.95019531 C-85.43825611 5.48507019 -70.82261273 -5.13711311 -53.65234375 -10.0859375 C-34.85844515 -14.62576236 -15.90322818 -10.89970144 0 0 Z M-66.75390625 28.328125 C-75.47655702 38.98914261 -77.59198045 49.69311641 -76.64453125 63.1875 C-74.40032038 73.96241606 -67.88687686 82.30805275 -59.0703125 88.6796875 C-49.09437226 94.88051348 -37.87250695 95.91058289 -26.4921875 93.52734375 C-15.78563961 90.05860243 -7.55412086 82.78112598 -2.42578125 72.8203125 C2.02525072 63.12342143 3.24026702 52.76466275 -0.20703125 42.4375 C-4.99368788 31.09629265 -12.21829328 23.42992099 -23.45703125 18.3125 C-38.7821766 12.90362517 -55.33115936 16.73615223 -66.75390625 28.328125 Z " fill="#FF0000" transform="translate(454.64453125,55.8125)"/>
</svg>
